<svg width="18" height="18" viewBox="0 0 18 18" fill="none" xmlns="http://www.w3.org/2000/svg">
<g id="Phosphor icons / BellSimple">
<path id="Vector (Stroke)" fill-rule="evenodd" clip-rule="evenodd" d="M6.1875 15.75C6.1875 15.4393 6.43934 15.1875 6.75 15.1875H11.25C11.5607 15.1875 11.8125 15.4393 11.8125 15.75C11.8125 16.0607 11.5607 16.3125 11.25 16.3125H6.75C6.43934 16.3125 6.1875 16.0607 6.1875 15.75Z" fill="#252733"/>
<path id="Vector (Stroke)_2" fill-rule="evenodd" clip-rule="evenodd" d="M8.92771 3.38905C8.3386 3.38905 7.75527 3.50509 7.21101 3.73052C6.66675 3.95596 6.17223 4.2864 5.75567 4.70295C5.33911 5.11951 5.00868 5.61404 4.78324 6.1583C4.5578 6.70256 4.44177 7.28589 4.44177 7.87499C4.44177 10.4713 3.89739 12.0349 3.375 12.9375H14.4804C13.958 12.0349 13.4136 10.4713 13.4136 7.87499C13.4136 7.28589 13.2976 6.70256 13.0722 6.1583C12.8467 5.61404 12.5163 5.11951 12.0997 4.70295C11.6832 4.2864 11.1887 3.95596 10.6444 3.73052C10.1001 3.50509 9.51681 3.38905 8.92771 3.38905ZM6.78049 2.69116C7.46124 2.40918 8.19087 2.26405 8.92771 2.26405C9.66455 2.26405 10.3942 2.40918 11.0749 2.69116C11.7557 2.97314 12.3742 3.38644 12.8952 3.90746C13.4163 4.42848 13.8296 5.04703 14.1115 5.72778C14.3935 6.40853 14.5386 7.13815 14.5386 7.87499C14.5386 10.3125 15.0487 11.6738 15.4544 12.3744L15.4547 12.375C15.5533 12.5457 15.6052 12.7394 15.6054 12.9365C15.6056 13.1336 15.554 13.3274 15.4557 13.4983C15.3574 13.6692 15.216 13.8113 15.0455 13.9103C14.875 14.0093 14.6815 14.0618 14.4844 14.0625L14.4824 14.0625H3.37302L3.37104 14.0625C3.1739 14.0618 2.9804 14.0093 2.80993 13.9103C2.63946 13.8113 2.498 13.6692 2.39973 13.4983C2.30146 13.3274 2.24983 13.1336 2.25 12.9365C2.25018 12.7394 2.30215 12.5457 2.40073 12.375L2.40106 12.3744C2.80669 11.6738 3.31677 10.3125 3.31677 7.87499C3.31677 7.13815 3.4619 6.40853 3.74388 5.72778C4.02585 5.04703 4.43915 4.42848 4.96017 3.90746C5.4812 3.38644 6.09974 2.97314 6.78049 2.69116Z" fill="#252733"/>
</g>
</svg>
