<svg width="19" height="16" viewBox="0 0 19 16" fill="none" xmlns="http://www.w3.org/2000/svg">
<path id="CP" d="M18.9999 9.46566C19.0174 12.2102 16.7546 14.4551 14.0094 14.4551H13.3322L13.7635 15.64C13.8267 15.8146 13.6977 16 13.5109 16H11.2226C11.1097 16 11.0089 15.9288 10.97 15.8227L10.4715 14.4551L9.62492 12.1283C9.56177 11.9537 9.69077 11.7683 9.87754 11.7683H14.0215C15.2805 11.7683 16.3219 10.7392 16.3125 9.48044C16.3085 8.85978 16.0545 8.29958 15.6474 7.89253C15.2362 7.48144 14.6692 7.22754 14.0417 7.22754H10.8437V7.24232L11.6848 9.55298C11.748 9.72762 11.619 9.91301 11.4322 9.91301H4.99051C2.25475 9.91436 -0.00804071 7.67624 2.14774e-05 4.94106C0.00405257 3.57884 0.559 2.34559 1.45256 1.45222C2.35015 0.554828 3.58904 0 4.95826 0H9.6733C9.78617 0 9.88695 0.0712007 9.92591 0.17733L10.7079 2.32678C10.7711 2.50143 10.6421 2.68682 10.4553 2.68682H4.97976C3.72206 2.68682 2.68742 3.69975 2.68742 4.95584C2.68742 6.21058 3.70325 7.22754 4.95826 7.22754H8.14954L7.30302 4.90076C7.23986 4.72611 7.36886 4.54072 7.55563 4.54072H14.0417C16.7694 4.54072 18.9824 6.74257 18.9999 9.46566Z" fill="white"/>
</svg>
