<svg width="15" height="15" viewBox="0 0 15 15" fill="none" xmlns="http://www.w3.org/2000/svg">
<g id="dashboard_fill 2" clip-path="url(#clip0_961_815)">
<path id="Vector" d="M14.7231 6.71543L11.9142 4.26563L7.89639 0.762012C7.67227 0.566309 7.32773 0.566309 7.10332 0.762012L3.08584 4.26563L0.276855 6.71543C0.149414 6.82676 0.0685547 6.95244 0.0292969 7.08193V7.47363C0.134473 7.82314 0.512402 8.11523 1.03652 8.11523H1.9043V13.4766C1.9043 13.962 2.29775 14.3555 2.7832 14.3555H12.2754C12.7608 14.3555 13.1543 13.962 13.1543 13.4766V8.11523H13.9635C14.8655 8.11523 15.3354 7.24951 14.7231 6.71543ZM5.00977 12.1582C5.00977 12.4819 4.74756 12.7441 4.42383 12.7441C4.1001 12.7441 3.83789 12.4819 3.83789 12.1582V8.70117C3.83789 8.37744 4.1001 8.11523 4.42383 8.11523C4.58555 8.11523 4.73203 8.18086 4.83809 8.28691C4.94414 8.39297 5.00977 8.53945 5.00977 8.70117V12.1582ZM8.11523 12.1582C8.11523 12.4819 7.85303 12.7441 7.5293 12.7441C7.20557 12.7441 6.94336 12.4819 6.94336 12.1582V6.41602C6.94336 6.09229 7.20557 5.83008 7.5293 5.83008C7.69102 5.83008 7.8375 5.8957 7.94355 6.00176C8.04961 6.10781 8.11523 6.2543 8.11523 6.41602V12.1582ZM11.2207 12.1582C11.2207 12.4819 10.9585 12.7441 10.6348 12.7441C10.311 12.7441 10.0488 12.4819 10.0488 12.1582V10.459C10.0488 10.1353 10.311 9.87305 10.6348 9.87305C10.7965 9.87305 10.943 9.93867 11.049 10.0447C11.1551 10.1508 11.2207 10.2973 11.2207 10.459V12.1582Z" fill="#D0D2D6"/>
</g>
<defs>
<clipPath id="clip0_961_815">
<rect width="15" height="15" fill="white"/>
</clipPath>
</defs>
</svg>
