<svg width="15" height="15" viewBox="0 0 15 15" fill="none" xmlns="http://www.w3.org/2000/svg">
<g id="dashboard_fill" clip-path="url(#clip0_1132_198)">
<path id="Vector" d="M14.7231 6.71543L11.9142 4.26563L7.89639 0.762012C7.67227 0.566309 7.32773 0.566309 7.10332 0.762012L3.08584 4.26563L0.276855 6.71543C0.149414 6.82676 0.0685547 6.95244 0.0292969 7.08193V7.47363C0.134473 7.82314 0.512402 8.11523 1.03652 8.11523H1.9043L2.15801 13.5179C2.17998 13.9866 2.5667 14.3555 3.03604 14.3555H12.0229C12.4922 14.3555 12.8789 13.9866 12.9009 13.5179L13.1543 8.11523H13.9635C14.8655 8.11523 15.3354 7.24951 14.7231 6.71543ZM5.00977 12.1582C5.00977 12.489 4.73613 12.7556 4.40273 12.7438C4.08516 12.7327 3.83789 12.462 3.83789 12.1444V8.71641C3.83789 8.39326 4.09307 8.11934 4.41621 8.11523C4.58086 8.11318 4.73027 8.1791 4.83809 8.28691C4.94414 8.39297 5.00977 8.53945 5.00977 8.70117V12.1582ZM8.11523 12.1582C8.11523 12.489 7.8416 12.7556 7.5082 12.7438C7.19063 12.7327 6.94336 12.462 6.94336 12.1444V6.43125C6.94336 6.10811 7.19853 5.83418 7.52168 5.83008C7.68633 5.82803 7.83574 5.89395 7.94355 6.00176C8.04961 6.10781 8.11523 6.2543 8.11523 6.41602V12.1582ZM11.2207 12.1582C11.2207 12.489 10.9471 12.7556 10.6137 12.7438C10.2961 12.7327 10.0488 12.462 10.0488 12.1444V10.4742C10.0488 10.1511 10.304 9.87715 10.6271 9.87305C10.7918 9.871 10.9412 9.93691 11.049 10.0447C11.1551 10.1508 11.2207 10.2973 11.2207 10.459V12.1582Z" fill="white"/>
</g>
<defs>
<clipPath id="clip0_1132_198">
<rect width="15" height="15" fill="white"/>
</clipPath>
</defs>
</svg>
