<svg width="10" height="10" viewBox="0 0 10 10" fill="none" xmlns="http://www.w3.org/2000/svg">
<g id="edit 1" clip-path="url(#clip0_1235_278)">
<path id="Vector" d="M-4.88281e-05 9.70702C0.0577637 9.49179 0.118701 9.27733 0.172998 9.06132C0.318896 8.48163 0.460498 7.90077 0.60835 7.32167C0.623584 7.2621 0.659326 7.20038 0.702685 7.15682C2.50503 5.35077 4.30913 3.54686 6.11323 1.74257C6.1314 1.7244 6.15093 1.70741 6.16147 1.69745C6.87358 2.40956 7.58355 3.11952 8.30132 3.83729C8.29194 3.84745 8.26968 3.87343 8.24565 3.89745C6.45073 5.69237 4.65601 7.48749 2.85874 9.28007C2.80659 9.33202 2.73276 9.37538 2.66167 9.39354C1.88413 9.59218 1.10522 9.78475 0.326709 9.97948C0.30835 9.98417 0.290967 9.99315 0.273193 9.99999C0.234131 9.99999 0.195068 9.99999 0.156006 9.99999C0.103857 9.94784 0.0519043 9.89589 -0.000244141 9.84374C-4.88281e-05 9.79823 -4.88281e-05 9.75253 -4.88281e-05 9.70702Z" fill="#99A2AD"/>
<path id="Vector_2" d="M10 1.83591C9.98616 1.88865 9.9803 1.94509 9.95686 1.99314C9.89163 2.12634 9.8428 2.2781 9.74495 2.38298C9.48362 2.66326 9.20002 2.92283 8.93127 3.18474C8.22932 2.48298 7.51721 1.77087 6.81506 1.06892C7.07678 0.800367 7.33088 0.510133 7.61584 0.254664C7.99397 -0.0843988 8.62756 -0.0756097 9.00725 0.26482C9.26585 0.496851 9.50491 0.751148 9.74592 1.00212C9.89456 1.15681 9.95413 1.35798 10 1.56248C10 1.65369 10 1.7447 10 1.83591Z" fill="#99A2AD"/>
</g>
<defs>
<clipPath id="clip0_1235_278">
<rect width="10" height="10" fill="white"/>
</clipPath>
</defs>
</svg>
