<svg width="18" height="18" viewBox="0 0 18 18" fill="none" xmlns="http://www.w3.org/2000/svg">
<g id="Phosphor icons / EnvelopeSimple">
<path id="Vector (Stroke)" fill-rule="evenodd" clip-rule="evenodd" d="M1.6875 3.9375C1.6875 3.62684 1.93934 3.375 2.25 3.375H15.75C16.0607 3.375 16.3125 3.62684 16.3125 3.9375V13.5C16.3125 13.7984 16.194 14.0845 15.983 14.2955C15.772 14.5065 15.4859 14.625 15.1875 14.625H2.8125C2.51413 14.625 2.22798 14.5065 2.017 14.2955C1.80603 14.0845 1.6875 13.7984 1.6875 13.5V3.9375ZM2.8125 4.5V13.5H15.1875V4.5H2.8125Z" fill="#252733"/>
<path id="Vector (Stroke)_2" fill-rule="evenodd" clip-rule="evenodd" d="M1.83535 3.55741C2.04527 3.3284 2.40109 3.31293 2.6301 3.52285L9 9.36193L15.3699 3.52285C15.5989 3.31293 15.9547 3.3284 16.1647 3.55741C16.3746 3.78641 16.3591 4.14223 16.1301 4.35215L9.3801 10.5397C9.16504 10.7368 8.83496 10.7368 8.61991 10.5397L1.86991 4.35215C1.6409 4.14223 1.62543 3.78641 1.83535 3.55741Z" fill="#252733"/>
</g>
</svg>
