<svg width="18" height="18" viewBox="0 0 18 18" fill="none" xmlns="http://www.w3.org/2000/svg">
<g id="exit 1">
<path id="Vector" d="M4.49474 9.91406L5.85177 11.2711C6.1949 11.6142 6.1949 12.1707 5.85177 12.5139C5.50865 12.857 4.95212 12.857 4.609 12.5139L1.75185 9.65672C1.40873 9.31359 1.40873 8.75707 1.75185 8.4136L2.37306 7.79238L4.609 5.55645C4.95212 5.21332 5.50865 5.21332 5.85177 5.55645C6.1949 5.89957 6.1949 6.45609 5.85177 6.79922L4.49474 8.15625H12.586C13.0715 8.15625 13.4649 8.54965 13.4649 9.03516C13.4649 9.52067 13.0715 9.91406 12.586 9.91406H4.49474Z" fill="#EF5350"/>
<path id="Vector_2" d="M16.4883 1.65234V16.418C16.4883 16.9035 16.0949 17.2969 15.6094 17.2969H9.87891C9.3934 17.2969 9 16.9035 9 16.418C9 15.9325 9.3934 15.5391 9.87891 15.5391H14.7305V2.53125H9.87891C9.3934 2.53125 9 2.13785 9 1.65234C9 1.16684 9.3934 0.773438 9.87891 0.773438H15.6094C16.0949 0.773438 16.4883 1.16684 16.4883 1.65234Z" fill="#EF5350"/>
</g>
</svg>
