<svg width="15" height="15" viewBox="0 0 15 15" fill="none" xmlns="http://www.w3.org/2000/svg">
<g id="general_settings 1" clip-path="url(#clip0_1132_204)">
<path id="Vector" d="M5.22598 0.404007C5.54326 0.408694 5.78467 0.539066 5.9792 0.772855C6.37119 1.24395 6.8751 1.49532 7.48916 1.49942C8.08447 1.50352 8.58164 1.27119 8.97744 0.827054C9.37441 0.381448 9.68643 0.305862 10.2387 0.521487C10.9723 0.807718 11.6399 1.20469 12.2476 1.7045C12.5985 1.99336 12.7031 2.36338 12.5552 2.79434C12.1427 3.99873 12.83 5.1835 14.0754 5.41407C14.5392 5.49991 14.7996 5.76416 14.8857 6.22207C15.0457 7.07168 15.0337 7.91953 14.8737 8.76709C14.7967 9.17549 14.4891 9.467 14.0695 9.53086C12.7802 9.72744 12.0519 10.9693 12.5092 12.1916C12.6735 12.6308 12.5722 13.0134 12.2115 13.3096C11.6282 13.7886 10.9866 14.1703 10.2885 14.4568C9.86719 14.6297 9.45762 14.5219 9.16992 14.165C8.30684 13.0942 6.84375 13.1124 6.00938 14.2046C5.72022 14.5831 5.31621 14.6988 4.87266 14.5289C4.12324 14.2421 3.43565 13.8486 2.81192 13.3427C2.42051 13.0254 2.31914 12.6416 2.5125 12.1767C2.8834 11.2843 2.59775 10.3014 1.81348 9.77549C1.56797 9.61084 1.29902 9.50567 1.00488 9.46582C0.433302 9.38819 0.169923 9.13653 0.0793955 8.56201C-0.0500967 7.74141 -0.0243155 6.92227 0.139747 6.10869C0.226759 5.67657 0.530274 5.41143 0.982032 5.35108C2.28252 5.17705 3.03135 3.94366 2.5875 2.70703C2.42432 2.25264 2.53652 1.86856 2.91826 1.57149C3.51387 1.10772 4.16631 0.745609 4.87207 0.478421C4.94004 0.45264 5.01065 0.433011 5.08154 0.417484C5.13164 0.406644 5.18467 0.407523 5.22598 0.404007ZM7.51231 5.00215C6.12363 5.00274 4.99951 6.12041 5.00127 7.49854C5.00303 8.88457 6.11953 9.9999 7.50615 10.0011C8.88399 10.0022 10.0028 8.87578 10.0017 7.48887C10.0005 6.12569 8.8752 5.00157 7.51231 5.00215Z" fill="#D0D2D6"/>
</g>
<defs>
<clipPath id="clip0_1132_204">
<rect width="15" height="15" fill="white"/>
</clipPath>
</defs>
</svg>
