<svg width="15" height="15" viewBox="0 0 15 15" fill="none" xmlns="http://www.w3.org/2000/svg">
<g id="lifebuoy 1" clip-path="url(#clip0_1132_207)">
<path id="Vector" d="M5.78672 0.679102C5.1876 0.251367 4.4543 0 3.66211 0C1.63945 0 0 1.63945 0 3.66211C0 4.38428 0.208887 5.05752 0.569824 5.62471C1.21934 6.64629 2.36162 7.32422 3.66211 7.32422C4.03623 7.32422 4.39717 7.26826 4.73701 7.16396C4.76602 6.92285 4.82549 6.6917 4.91221 6.47373C4.53047 6.64365 4.10742 6.73828 3.66211 6.73828C2.38594 6.73828 1.29141 5.96133 0.825586 4.85449C0.671191 4.48799 0.585938 4.08486 0.585938 3.66211C0.585938 1.96318 1.96318 0.585938 3.66211 0.585938C4.15752 0.585938 4.62539 0.702832 5.03965 0.911133C6.04688 1.41621 6.73828 2.4583 6.73828 3.66211C6.73828 4.07109 6.65859 4.46162 6.51328 4.81846C6.72686 4.73994 6.95244 4.68604 7.18652 4.66084C7.27617 4.34326 7.32422 4.0084 7.32422 3.66211C7.32422 2.43164 6.71748 1.34297 5.78672 0.679102Z" fill="#D0D2D6"/>
<path id="Vector_2" d="M11.3379 0C10.5457 0 9.8124 0.251367 9.21328 0.679102C8.28252 1.34297 7.67578 2.43164 7.67578 3.66211C7.67578 4.0084 7.72383 4.34326 7.81348 4.66084C8.04756 4.68604 8.27314 4.73994 8.48672 4.81846C8.34141 4.46162 8.26172 4.07109 8.26172 3.66211C8.26172 2.4583 8.95313 1.41621 9.96035 0.911133C10.3746 0.702832 10.8425 0.585938 11.3379 0.585938C13.0368 0.585938 14.4141 1.96318 14.4141 3.66211C14.4141 4.08486 14.3288 4.48799 14.1744 4.85449C13.7086 5.96133 12.6141 6.73828 11.3379 6.73828C10.8946 6.73828 10.4739 6.64453 10.0934 6.47607C10.0992 6.49834 10.1062 6.52061 10.1145 6.54258C10.1868 6.74033 10.2372 6.94834 10.263 7.16396C10.6028 7.26826 10.9638 7.32422 11.3379 7.32422C12.6384 7.32422 13.7807 6.64629 14.4305 5.62471C14.7911 5.05752 15 4.38428 15 3.66211C15 1.63945 13.3605 0 11.3379 0Z" fill="#D0D2D6"/>
<path id="Vector_3" d="M14.4305 9.37529C13.7807 8.35371 12.6384 7.67578 11.3379 7.67578C10.9638 7.67578 10.6028 7.73174 10.263 7.83604C10.2372 8.05166 10.1868 8.25967 10.1145 8.45742C10.1062 8.47939 10.0992 8.50166 10.0934 8.52393C10.4739 8.35547 10.8946 8.26172 11.3379 8.26172C12.6141 8.26172 13.7086 9.03867 14.1744 10.1455C14.3288 10.512 14.4141 10.9151 14.4141 11.3379C14.4141 13.0368 13.0368 14.4141 11.3379 14.4141C10.8425 14.4141 10.3746 14.2972 9.96035 14.0889C8.95313 13.5838 8.26172 12.5417 8.26172 11.3379C8.26172 10.9286 8.3417 10.5381 8.48672 10.1812C8.27314 10.2601 8.04756 10.314 7.81348 10.3395C7.72383 10.6567 7.67578 10.9916 7.67578 11.3379C7.67578 12.5684 8.28252 13.6573 9.21357 14.3212C9.8127 14.7486 10.5457 15 11.3379 15C13.3605 15 15 13.3605 15 11.3379C15 10.6157 14.7911 9.94248 14.4305 9.37529Z" fill="#D0D2D6"/>
<path id="Vector_4" d="M7.18652 10.3395C6.95244 10.314 6.72686 10.2601 6.51328 10.1812C6.6583 10.5381 6.73828 10.9286 6.73828 11.3379C6.73828 12.5417 6.04688 13.5838 5.03965 14.0889C4.62539 14.2972 4.15752 14.4141 3.66211 14.4141C1.96318 14.4141 0.585938 13.0368 0.585938 11.3379C0.585938 10.9151 0.671191 10.512 0.825586 10.1455C1.29141 9.03867 2.38594 8.26172 3.66211 8.26172C4.10742 8.26172 4.53047 8.35635 4.91221 8.52627C4.82549 8.3083 4.76602 8.07715 4.73701 7.83604C4.39717 7.73174 4.03623 7.67578 3.66211 7.67578C2.36162 7.67578 1.21934 8.35371 0.569824 9.37529C0.208887 9.94248 0 10.6157 0 11.3379C0 13.3605 1.63945 15 3.66211 15C4.4543 15 5.1873 14.7486 5.78643 14.3212C6.71748 13.6573 7.32422 12.5684 7.32422 11.3379C7.32422 10.9916 7.27617 10.6567 7.18652 10.3395Z" fill="#D0D2D6"/>
<g id="Group">
<path id="Vector_5" d="M4.93535 8.58339C5.07422 8.91152 4.99746 9.2912 4.7458 9.54287L2.08125 12.2074C1.55391 11.601 1.12676 10.9052 0.825586 10.1455C0.72627 9.89531 0.640723 9.63837 0.569824 9.37529C0.408398 8.77763 0.322266 8.14892 0.322266 7.49999C0.322266 6.85107 0.408398 6.22236 0.569824 5.6247C0.640723 5.36162 0.72627 5.10468 0.825586 4.85449C1.12676 4.09482 1.55391 3.39902 2.08125 2.79257L4.7458 5.45712C4.99746 5.70878 5.07422 6.08847 4.93535 6.4166C4.92744 6.43564 4.91953 6.45468 4.91221 6.47372C4.82549 6.69169 4.76602 6.92285 4.73701 7.16396C4.72354 7.27411 4.7168 7.38632 4.7168 7.49999C4.7168 7.61367 4.72354 7.72587 4.73701 7.83603C4.76602 8.07714 4.82549 8.30829 4.91221 8.52626C4.91953 8.54531 4.92744 8.56435 4.93535 8.58339Z" fill="#D0D2D6"/>
<path id="Vector_6" d="M14.6777 7.5C14.6777 8.14893 14.5916 8.77734 14.4305 9.37529C14.3593 9.63838 14.2737 9.89531 14.1744 10.1455C13.894 10.8524 13.5044 11.5046 13.0263 12.0806L10.3204 9.37471C10.0969 9.15117 10.0096 8.82539 10.0931 8.52393H10.0934C10.0992 8.50166 10.1062 8.47939 10.1145 8.45742C10.1868 8.25967 10.2372 8.05166 10.263 7.83604C10.2765 7.72588 10.2832 7.61367 10.2832 7.5C10.2832 7.38633 10.2765 7.27412 10.263 7.16396C10.2372 6.94834 10.1868 6.74033 10.1145 6.54258C10.1062 6.52061 10.0992 6.49834 10.0934 6.47607H10.0931C10.0096 6.17461 10.0969 5.84883 10.3204 5.62529L13.0263 2.91943C13.5044 3.49541 13.894 4.14756 14.1744 4.85449C14.2737 5.10469 14.3593 5.36162 14.4305 5.62471C14.5916 6.22266 14.6777 6.85107 14.6777 7.5Z" fill="#D0D2D6"/>
</g>
<g id="Group_2">
<path id="Vector_7" d="M12.1037 2.18496L9.59883 4.68984C9.34629 4.94238 8.96426 5.0209 8.63672 4.87852C8.5875 4.85713 8.5374 4.83721 8.48672 4.81846C8.27314 4.73994 8.04756 4.68603 7.81348 4.66084C7.71065 4.64941 7.60606 4.64355 7.5 4.64355C7.39395 4.64355 7.28936 4.64941 7.18652 4.66084C6.95244 4.68603 6.72686 4.73994 6.51328 4.81846C6.4626 4.83721 6.4125 4.85713 6.36328 4.87852C6.03574 5.0209 5.65371 4.94238 5.40117 4.68984L2.89629 2.18496C3.52324 1.64121 4.24775 1.20674 5.03965 0.911133C5.28252 0.820312 5.53184 0.742676 5.78672 0.679102C6.33516 0.541699 6.90908 0.46875 7.5 0.46875C8.09092 0.46875 8.66484 0.541699 9.21328 0.679102C9.46816 0.742676 9.71748 0.820312 9.96035 0.911133C10.7522 1.20674 11.4768 1.64121 12.1037 2.18496Z" fill="#D0D2D6"/>
<path id="Vector_8" d="M11.9769 12.9226C11.3798 13.4162 10.6995 13.8129 9.96035 14.0889C9.71748 14.1797 9.46816 14.2573 9.21357 14.3212C8.66514 14.4583 8.09092 14.5313 7.5 14.5313C6.90908 14.5313 6.33486 14.4583 5.78643 14.3212C5.53184 14.2573 5.28252 14.1797 5.03965 14.0889C4.30049 13.8129 3.62022 13.4162 3.02315 12.9226L5.56699 10.3787C5.80899 10.1367 6.1708 10.0524 6.49102 10.1731C6.49834 10.176 6.50567 10.1786 6.51328 10.1813C6.72686 10.2601 6.95244 10.314 7.18652 10.3395C7.28936 10.3506 7.39395 10.3565 7.5 10.3565C7.60606 10.3565 7.71065 10.3506 7.81348 10.3395C8.04756 10.314 8.27315 10.2601 8.48672 10.1813C8.49434 10.1786 8.50166 10.176 8.50899 10.1731C8.8292 10.0524 9.19102 10.1367 9.43301 10.3787L11.9769 12.9226Z" fill="#D0D2D6"/>
</g>
</g>
<defs>
<clipPath id="clip0_1132_207">
<rect width="15" height="15" fill="white"/>
</clipPath>
</defs>
</svg>
