<svg width="15" height="15" viewBox="0 0 15 15" fill="none" xmlns="http://www.w3.org/2000/svg">
<g id="news" clip-path="url(#clip0_1179_1064)">
<path id="Vector" d="M14.7853 5.67302C14.7853 7.14636 14.7864 8.6197 14.7847 10.093C14.7838 10.722 14.4381 11.1943 13.858 11.3077C13.6538 11.3475 13.4162 11.339 13.2193 11.2746C11.3985 10.6813 9.58388 10.0699 7.76601 9.46784C7.67783 9.43855 7.65351 9.39841 7.65351 9.31081C7.65556 6.88356 7.65556 4.45632 7.65322 2.02907C7.65322 1.93942 7.68252 1.90251 7.76836 1.87409C9.57597 1.27497 11.381 0.667939 13.1895 0.0714543C14.0265 -0.204522 14.7812 0.349775 14.7838 1.23718C14.7882 2.71579 14.785 4.1944 14.7853 5.67302Z" fill="white"/>
<path id="Vector_2" d="M6.97178 9.57624C6.91553 9.57624 6.86924 9.57624 6.82266 9.57624C5.69883 9.57624 4.575 9.58122 3.45088 9.57507C1.86035 9.56657 0.569533 8.51071 0.255763 6.96237C0.215041 6.7614 0.202736 6.55251 0.198927 6.34685C0.190724 5.89655 0.192482 5.44567 0.197169 4.99538C0.215627 3.21706 1.56094 1.82019 3.33985 1.77419C4.52666 1.74343 5.71465 1.76716 6.90205 1.76716C6.92227 1.76716 6.94248 1.77243 6.97178 1.77653C6.97178 4.37106 6.97178 6.96062 6.97178 9.57624Z" fill="white"/>
<path id="Vector_3" d="M3.19014 10.2586C4.68194 10.2586 6.1541 10.2586 7.64532 10.2586C7.83018 11.0452 8.06514 11.8193 8.18643 12.6109C8.38125 13.8856 7.34297 15.0094 6.04717 14.9997C5.08125 14.9927 4.23926 14.3643 3.99053 13.4294C3.71133 12.3815 3.4585 11.3268 3.19014 10.2586Z" fill="white"/>
</g>
<defs>
<clipPath id="clip0_1179_1064">
<rect width="15" height="15" fill="white"/>
</clipPath>
</defs>
</svg>
