<svg width="15" height="15" viewBox="0 0 15 15" fill="none" xmlns="http://www.w3.org/2000/svg">
<g id="puzzle 1" clip-path="url(#clip0_1132_201)">
<path id="Vector" d="M0.00119209 7.64648C0.00119209 7.54893 0.00119209 7.45107 0.00119209 7.35352C0.0691608 6.93135 0.320821 6.62549 0.616719 6.33838C1.10656 5.86318 1.58527 5.37627 2.06545 4.89111C2.16096 4.79473 2.25412 4.6916 2.32824 4.57852C2.66399 4.06699 2.45393 3.50156 1.86477 3.33457C1.71154 3.29121 1.54865 3.28096 1.39045 3.25459C0.668282 3.13477 0.14504 2.55176 0.131563 1.83721C0.12043 1.26152 0.508614 0.578906 1.18947 0.282129C1.85275 -0.00703124 2.54504 0.173145 2.96516 0.75791C3.17111 1.04473 3.23996 1.37578 3.27658 1.71943C3.334 2.25791 3.76291 2.59746 4.24133 2.48525C4.48684 2.42754 4.6758 2.27314 4.84982 2.09854C5.39738 1.54951 5.94553 1.00137 6.4925 0.452051C6.68908 0.254883 6.91379 0.107227 7.1883 0.0445312C7.25832 0.028418 7.32863 0.0146484 7.39895 0C7.45754 0 7.51584 0 7.57443 0C7.5967 0.00791016 7.61838 0.0210938 7.64123 0.0234375C7.89553 0.0495117 8.12492 0.140332 8.31418 0.311133C8.52395 0.500391 8.72346 0.701074 8.92414 0.9C9.35715 1.32891 9.784 1.76426 10.2217 2.18877C10.4274 2.38828 10.677 2.51426 10.9738 2.47998C11.3359 2.43809 11.6098 2.13633 11.669 1.73438C11.6883 1.604 11.698 1.47188 11.7252 1.34355C11.8972 0.536133 12.5549 0.0354492 13.3386 0.155566C13.9708 0.252539 14.4147 0.629297 14.6757 1.21494C14.9625 1.85859 14.7697 2.56055 14.1993 2.96895C13.9075 3.17783 13.5721 3.24229 13.2246 3.28213C12.5444 3.36035 12.2505 3.99932 12.6325 4.56504C12.7055 4.67344 12.7951 4.77246 12.8871 4.86562C13.4294 5.41289 13.9764 5.95576 14.5175 6.5042C14.6159 6.60381 14.712 6.71309 14.7806 6.83408C15.1058 7.40742 15.0114 8.01211 14.526 8.50195C13.9732 9.05947 13.4203 9.61728 12.8599 10.1669C12.7365 10.2879 12.5912 10.3969 12.4374 10.4736C12.0434 10.6699 11.6136 10.5252 11.4267 10.1262C11.3482 9.95889 11.318 9.76436 11.289 9.57861C11.1958 8.98125 10.9146 8.52129 10.3389 8.29307C9.36389 7.90664 8.17854 8.76299 8.16799 9.88447C8.16125 10.5981 8.72873 11.2099 9.45119 11.3118C9.63811 11.3382 9.83147 11.3596 10.0061 11.4252C10.4731 11.6007 10.6506 12.0703 10.4221 12.5121C10.3494 12.6524 10.2489 12.7849 10.1379 12.8979C9.59504 13.4517 9.04455 13.9978 8.49641 14.5462C8.29982 14.7428 8.07482 14.891 7.79943 14.952C7.72473 14.9684 7.64973 14.9842 7.57473 15.0003C7.51613 15.0003 7.45783 15.0003 7.39924 15.0003C6.88508 14.9525 6.54406 14.6247 6.20832 14.2772C5.76477 13.8179 5.31096 13.3682 4.85451 12.9214C4.73059 12.8001 4.59231 12.6841 4.44172 12.6006C3.99172 12.3516 3.51477 12.5329 3.34133 13.0175C3.28654 13.171 3.26662 13.3395 3.24787 13.5032C3.17082 14.1735 2.67277 14.7322 2.02326 14.8137C1.39484 14.8928 0.888887 14.63 0.508907 14.1396C0.156173 13.684 0.0196491 13.1678 0.25168 12.6161C0.481368 12.07 0.92668 11.7943 1.50441 11.7132C1.6717 11.6897 1.84455 11.6648 1.99983 11.6024C2.43576 11.4272 2.60422 10.9863 2.39123 10.568C2.30891 10.4062 2.18791 10.258 2.06047 10.1268C1.58791 9.64102 1.11096 9.15938 0.62463 8.6874C0.3217 8.39326 0.0630085 8.08125 0.00119209 7.64648Z" fill="#D0D2D6"/>
</g>
<defs>
<clipPath id="clip0_1132_201">
<rect width="15" height="15" fill="white"/>
</clipPath>
</defs>
</svg>
