<svg width="15" height="15" viewBox="0 0 15 15" fill="none" xmlns="http://www.w3.org/2000/svg">
<g id="roll_up">
<path id="Vector" d="M9.96549 1.28583L3.25075 7.99863C2.96473 8.28456 2.50083 8.28456 2.21452 7.99863C1.92849 7.71269 1.92849 7.24892 2.21452 6.96269L8.92925 0.250189C9.21527 -0.0357483 9.67917 -0.0357483 9.96549 0.250189C10.2515 0.536127 10.2515 0.999896 9.96549 1.28583Z" fill="#D0D2D6"/>
<path id="Vector_2" d="M8.92925 14.7305L2.21452 8.01797C1.92849 7.73203 1.92849 7.26826 2.21452 6.98203C2.50054 6.69609 2.96444 6.69609 3.25075 6.98203L9.96549 13.6948C10.2515 13.9808 10.2515 14.4445 9.96549 14.7308C9.67917 15.0167 9.21527 15.0167 8.92925 14.7305Z" fill="#D0D2D6"/>
<path id="Vector_3" d="M14.0541 1.28583L7.33941 7.99863C7.05339 8.28456 6.58948 8.28456 6.30317 7.99863C6.01715 7.71269 6.01715 7.24892 6.30317 6.96269L13.0179 0.250189C13.3039 -0.0357483 13.7678 -0.0357483 14.0541 0.250189C14.3402 0.536127 14.3402 0.999896 14.0541 1.28583Z" fill="#D0D2D6"/>
<path id="Vector_4" d="M13.0179 14.7305L6.30347 8.01797C6.01745 7.73203 6.01745 7.26826 6.30347 6.98203C6.58949 6.69609 7.0534 6.69609 7.33971 6.98203L14.0544 13.6948C14.3405 13.9808 14.3405 14.4445 14.0544 14.7308C13.7681 15.0167 13.3042 15.0167 13.0179 14.7305Z" fill="#D0D2D6"/>
</g>
</svg>
