<svg width="15" height="15" viewBox="0 0 15 15" fill="none" xmlns="http://www.w3.org/2000/svg">
<g id="sale 1" clip-path="url(#clip0_1179_1028)">
<path id="Vector" d="M7.35352 0C7.45107 0 7.54893 0 7.64648 0C8.04111 0.0635742 8.34141 0.284473 8.61211 0.563965C8.83271 0.791602 9.06855 1.00488 9.29473 1.22725C9.41895 1.34941 9.56426 1.39717 9.73535 1.37256C10.1021 1.31953 10.4698 1.27178 10.8354 1.21289C11.6417 1.08281 12.2675 1.50469 12.4298 2.30361C12.5045 2.67129 12.5689 3.0416 12.6246 3.4125C12.658 3.63516 12.7629 3.78545 12.9653 3.88623C13.297 4.05146 13.6228 4.22813 13.9485 4.40479C14.6443 4.78213 14.8772 5.49609 14.5374 6.21094C14.3742 6.5543 14.2075 6.89619 14.0358 7.23516C13.9444 7.41533 13.9444 7.58525 14.0358 7.76543C14.2075 8.10439 14.3739 8.44629 14.5374 8.78965C14.8775 9.50449 14.6449 10.2185 13.9488 10.5958C13.6145 10.7771 13.2794 10.9567 12.9404 11.1287C12.7585 11.221 12.6618 11.361 12.6302 11.5591C12.5722 11.92 12.5095 12.2804 12.445 12.6401C12.2994 13.4525 11.7085 13.8946 10.8946 13.7947C10.522 13.749 10.1505 13.6942 9.77959 13.6348C9.58008 13.6028 9.41748 13.6482 9.27392 13.793C9.05742 14.0112 8.82656 14.2154 8.61299 14.4363C8.34228 14.7158 8.04199 14.9367 7.64736 15.0003C7.5498 15.0003 7.45195 15.0003 7.35439 15.0003C7.04619 14.9399 6.77373 14.8116 6.54727 14.5887C6.27246 14.3183 5.9915 14.0537 5.71699 13.7833C5.58926 13.6576 5.44365 13.6025 5.26553 13.6289C4.89404 13.6837 4.52168 13.7329 4.15078 13.7906C3.35273 13.9151 2.73105 13.4906 2.57139 12.6987C2.49727 12.3308 2.43223 11.9607 2.37656 11.5898C2.34316 11.3675 2.23975 11.2163 2.03701 11.1155C1.70977 10.9526 1.38896 10.7766 1.06699 10.6037C0.355664 10.222 0.12041 9.50449 0.469629 8.77764C0.632227 8.43926 0.79541 8.10146 0.965625 7.76689C1.05732 7.58672 1.0582 7.41738 0.966504 7.23691C0.794531 6.89795 0.628418 6.55576 0.464942 6.2127C0.125098 5.49873 0.358008 4.78271 1.05293 4.40566C1.38721 4.22432 1.72236 4.04443 2.06162 3.87275C2.24385 3.78047 2.34023 3.64072 2.37217 3.44268C2.43047 3.08174 2.49287 2.72139 2.55732 2.36162C2.70264 1.5498 3.29531 1.10654 4.10801 1.20703C4.47568 1.25244 4.84307 1.30459 5.2084 1.36553C5.41934 1.40068 5.58867 1.35234 5.73926 1.19854C5.95107 0.982617 6.1793 0.78252 6.38965 0.565137C6.6583 0.28418 6.95889 0.0635742 7.35352 0ZM4.64531 10.7842C4.80147 10.7889 4.90957 10.7021 5.0124 10.5993C6.87539 8.73516 8.73897 6.87187 10.6022 5.0083C10.6298 4.98076 10.6576 4.95322 10.6825 4.92305C10.8015 4.77891 10.8185 4.59023 10.7279 4.43174C10.6406 4.27852 10.4704 4.18008 10.2973 4.22461C10.1865 4.25303 10.0726 4.32188 9.99082 4.40332C8.12402 6.26338 6.26133 8.12754 4.39805 9.99111C4.36348 10.0257 4.32803 10.06 4.2999 10.0995C4.19736 10.2434 4.18418 10.398 4.26592 10.5542C4.34502 10.7057 4.47539 10.7804 4.64531 10.7842ZM9.22617 8.2248C8.35225 8.22715 7.64648 8.93408 7.6459 9.80742C7.64531 10.6752 8.35898 11.3912 9.22676 11.3936C10.1001 11.3959 10.817 10.6755 10.8132 9.7998C10.8094 8.925 10.1016 8.22246 9.22617 8.2248ZM5.77471 6.77607C6.64834 6.77256 7.35498 6.06357 7.35439 5.1917C7.35381 4.31836 6.6293 3.59912 5.75771 3.60645C4.88877 3.61377 4.18242 4.33096 4.18682 5.20137C4.19121 6.07529 4.90166 6.77959 5.77471 6.77607Z" fill="white"/>
<path id="Vector_2" d="M9.22734 10.5231C8.83037 10.522 8.5122 10.2041 8.51132 9.80799C8.51044 9.41687 8.83418 9.08992 9.22588 9.0867C9.6205 9.08318 9.95683 9.42068 9.95039 9.81385C9.94365 10.2111 9.6249 10.524 9.22734 10.5231Z" fill="white"/>
<path id="Vector_3" d="M6.48867 5.1888C6.49248 5.57903 6.16992 5.90833 5.77822 5.91448C5.38535 5.92063 5.04727 5.5846 5.0499 5.19055C5.05254 4.79505 5.37276 4.47776 5.76944 4.47717C6.16611 4.4763 6.48486 4.79182 6.48867 5.1888Z" fill="white"/>
</g>
<defs>
<clipPath id="clip0_1179_1028">
<rect width="15" height="15" fill="white"/>
</clipPath>
</defs>
</svg>
