<svg width="15" height="15" viewBox="0 0 15 15" fill="none" xmlns="http://www.w3.org/2000/svg">
<g id="Services 1" clip-path="url(#clip0_961_909)">
<path id="Vector" d="M3.05174e-06 7.24568C0.145609 6.8824 0.287698 6.51736 0.437698 6.15584C0.853714 5.15359 1.27266 4.15252 1.69102 3.15115C1.73789 3.03894 1.90811 2.96131 2.01826 3.01023C2.4167 3.18718 2.81426 3.36619 3.21006 3.549C3.33428 3.60642 3.33604 3.62195 3.30557 3.75496C3.29825 3.78718 3.28799 3.81912 3.27481 3.84929C3.09932 4.253 2.92618 4.65759 2.746 5.05896C2.49873 5.60974 2.24033 6.15554 1.99805 6.70838C1.85303 7.03943 1.72998 7.37986 1.59698 7.71619C1.58584 7.74461 1.57676 7.7739 1.56387 7.80173C1.50967 7.91775 1.41416 7.96638 1.28614 7.92508C1.08487 7.86033 0.885355 7.78972 0.68848 7.71267C0.510648 7.64295 0.335452 7.56502 0.16348 7.48181C0.102249 7.45222 0.0539093 7.39656 -0.000289917 7.35291C3.05174e-06 7.31716 3.05174e-06 7.28142 3.05174e-06 7.24568Z" fill="white"/>
<path id="Vector_2" d="M15.0293 7.39892C14.9856 7.42382 14.9449 7.45722 14.898 7.47275C14.5151 7.59785 14.1313 7.7206 13.747 7.8413C13.5504 7.90312 13.4751 7.86562 13.4042 7.66845C13.3359 7.47919 13.2735 7.28788 13.2117 7.09628C12.8634 6.01523 12.5159 4.93388 12.1688 3.85253C12.1509 3.79687 12.1356 3.74003 12.1242 3.68261C12.1049 3.58535 12.1304 3.52236 12.2203 3.48046C12.317 3.43535 12.4189 3.40107 12.5194 3.36503C12.7664 3.27597 13.0134 3.18662 13.2618 3.10136C13.3359 3.07587 13.4142 3.05917 13.4918 3.04716C13.6386 3.02431 13.6887 3.06093 13.7271 3.20683C13.7695 3.36943 13.8056 3.53437 13.8563 3.69433C14.0068 4.17011 14.1653 4.64355 14.3174 5.11904C14.47 5.59687 14.6171 6.07675 14.7697 6.55429C14.8365 6.76288 14.9112 6.96884 14.9839 7.17538C14.9944 7.20556 15.0141 7.23251 15.0293 7.26093C15.0293 7.30693 15.0293 7.35292 15.0293 7.39892Z" fill="white"/>
<path id="Vector_3" d="M8.83916 10.5416C8.83154 10.616 8.85557 10.6755 8.91094 10.7194C9.10078 10.8703 9.29238 11.0186 9.48193 11.1697C9.56953 11.2395 9.65625 11.3109 9.73887 11.3865C9.80772 11.4498 9.81182 11.531 9.79307 11.6197C9.70225 12.0498 9.27861 12.2692 8.9376 12.2587C8.78789 12.254 8.65166 12.213 8.52715 12.1295C8.31563 11.9877 8.10322 11.8471 7.89287 11.7067C7.80879 11.7779 7.81729 11.8242 7.89844 11.8793C8.05459 11.9851 8.20547 12.0981 8.35694 12.2106C8.40205 12.2443 8.43047 12.2965 8.38096 12.341C8.24736 12.4614 8.12139 12.605 7.92363 12.6105C7.81553 12.6135 7.70479 12.5971 7.59844 12.5754C7.50762 12.5569 7.47276 12.4907 7.48037 12.38C7.49297 12.2013 7.53281 12.0293 7.59111 11.8591C7.67109 11.6253 7.65674 11.3903 7.5419 11.1689C7.43848 10.969 7.27178 10.8328 7.06084 10.7654C6.86045 10.7013 6.79336 10.5565 6.76289 10.3714C6.74707 10.2738 6.72803 10.1748 6.69434 10.0822C6.5707 9.74502 6.27832 9.54053 5.91387 9.52881C5.85264 9.52676 5.79111 9.53086 5.72988 9.52969C5.64463 9.52823 5.58194 9.49541 5.53887 9.41514C5.44541 9.24053 5.33086 9.08028 5.16445 8.9666C4.96641 8.83155 4.75137 8.80401 4.52168 8.87344C4.49385 8.88194 4.4499 8.8708 4.42617 8.85264C4.38223 8.81895 4.34737 8.77324 4.30957 8.73194C4.1836 8.59307 4.03887 8.48145 3.85166 8.44131C3.56397 8.38008 3.34248 8.50459 3.14121 8.69444C3.08233 8.7501 3.00674 8.79698 2.93027 8.82217C2.88018 8.83858 2.80313 8.82598 2.75889 8.7961C2.61768 8.7003 2.48115 8.596 2.35195 8.48438C2.14658 8.30713 2.10967 8.13076 2.21162 7.88116C2.69824 6.69258 3.18545 5.5043 3.67178 4.31543C3.70664 4.23047 3.73565 4.14346 3.77168 4.05908C3.82676 3.93047 3.9249 3.85459 4.06641 3.8502C4.22432 3.84522 4.37666 3.86953 4.47422 4.0125C4.55713 4.13408 4.53985 4.26797 4.48623 4.39395C4.38662 4.62832 4.28115 4.86006 4.17334 5.09092C4.11182 5.22246 4.04238 5.3502 3.97383 5.47852C3.83408 5.74073 3.85899 5.9833 4.08106 6.17871C4.41387 6.47168 4.80176 6.61641 5.25322 6.54727C5.60596 6.49307 5.90742 6.33457 6.16231 6.09053C6.31143 5.94785 6.44473 5.78848 6.59063 5.64199C6.67676 5.55557 6.76758 5.47178 6.8666 5.40147C7.02891 5.28604 7.2126 5.2667 7.38867 5.35987C7.54805 5.44424 7.69981 5.54532 7.84541 5.65166C8.95195 6.46114 10.0588 7.27032 11.1601 8.08711C11.5292 8.36075 11.8849 8.65166 12.2112 8.97803C12.3577 9.12452 12.4099 9.29268 12.404 9.48838C12.3979 9.69698 12.3346 9.8836 12.1857 10.0362C12.0158 10.2105 11.8189 10.3184 11.5655 10.2943C11.4261 10.2812 11.3065 10.2179 11.1926 10.1452C11.1023 10.0875 11.0171 10.0222 10.9321 9.95713C10.5231 9.64307 10.1153 9.32754 9.70635 9.01348C9.67852 8.99209 9.646 8.97451 9.6126 8.96309C9.55283 8.94287 9.47666 8.97276 9.4541 9.02373C9.42744 9.08438 9.46172 9.12715 9.50479 9.1626C9.58565 9.2291 9.66709 9.29444 9.75 9.3583C10.1713 9.68145 10.5952 10.0014 11.0133 10.3286C11.1044 10.3998 11.1776 10.495 11.2538 10.5835C11.2752 10.6081 11.2901 10.6506 11.2863 10.6822C11.2723 10.8026 11.2685 10.9292 11.2266 11.0405C11.124 11.3133 10.7622 11.5441 10.4824 11.533C10.3239 11.5269 10.1827 11.4639 10.0594 11.371C9.83906 11.2052 9.62549 11.0309 9.40928 10.8595C9.30117 10.7739 9.18867 10.6928 9.08789 10.5993C9.01231 10.529 8.93115 10.5305 8.83916 10.5416Z" fill="white"/>
<path id="Vector_4" d="M12.8212 7.75663C12.813 7.94296 12.7222 8.07509 12.5862 8.17587C12.508 8.23388 12.414 8.22538 12.3308 8.18232C12.2563 8.14423 12.1878 8.09413 12.1181 8.04726C10.923 7.24218 9.79014 6.35273 8.64258 5.4832C8.39033 5.29218 8.14394 5.09355 7.89551 4.89814C7.55713 4.63212 7.18652 4.55156 6.77461 4.70126C6.70986 4.7247 6.64219 4.73935 6.57832 4.76484C6.49717 4.79736 6.44941 4.85478 6.4374 4.94765C6.39082 5.30478 6.21592 5.58896 5.89512 5.75185C5.66279 5.86992 5.4123 5.96132 5.16035 6.02958C4.97754 6.0791 4.79355 6.01464 4.65029 5.88251C4.5331 5.77441 4.51025 5.6332 4.5665 5.48847C4.61133 5.37304 4.66523 5.25908 4.73174 5.15478C4.8832 4.91718 4.94824 4.65351 4.96611 4.37988C4.98457 4.09775 4.98135 3.81415 4.98721 3.53115C4.98838 3.4749 4.98545 3.41865 4.98809 3.36269C5.00185 3.07704 5.13633 2.94199 5.41904 2.90097C5.55644 2.88105 5.68945 2.83183 5.82451 2.79492C6.34365 2.65312 6.86279 2.5122 7.38135 2.36777C7.46455 2.34462 7.53955 2.35048 7.61924 2.37861C8.15771 2.56933 8.69824 2.75449 9.23555 2.94814C9.8833 3.18134 10.5264 3.42861 11.1771 3.65361C11.3692 3.72011 11.4686 3.84579 11.5365 4.01689C11.8629 4.83661 12.1198 5.68007 12.3917 6.51826C12.4834 6.80126 12.6023 7.07548 12.7055 7.35468C12.745 7.4622 12.7761 7.57265 12.8095 7.68222C12.8168 7.70917 12.8183 7.73788 12.8212 7.75663Z" fill="white"/>
<path id="Vector_5" d="M6.03311 11.7176C5.98564 11.7507 5.93877 11.785 5.89043 11.8169C5.66924 11.9628 5.43984 11.9974 5.19668 11.8693C4.95557 11.7425 4.85918 11.531 4.8498 11.2729C4.8457 11.1592 4.86094 11.0446 4.86738 10.9348C4.72764 10.9679 4.58584 11.0086 4.44141 11.0338C4.1373 11.0868 3.94014 10.9685 3.84961 10.6731C3.81035 10.5451 3.79629 10.4092 3.77227 10.2765C3.76465 10.2343 3.7626 10.1915 3.75762 10.142C3.65889 10.142 3.56426 10.1505 3.47197 10.1402C3.21094 10.1118 3.05391 9.95332 3.03105 9.69346C3.0126 9.48252 3.06738 9.29033 3.19863 9.12012C3.34072 8.93584 3.6627 8.91123 3.83115 9.06475C3.94219 9.16612 4.01045 9.2918 4.06289 9.42891C4.07461 9.45938 4.08486 9.49043 4.09629 9.52207C4.72266 9.15996 5.25088 9.70371 5.16328 10.2401C5.24209 10.2114 5.31885 10.1774 5.39912 10.1555C5.89248 10.0198 6.28945 10.3072 6.29854 10.8188C6.30147 10.9793 6.25781 11.1404 6.23525 11.3013C6.2335 11.3133 6.22998 11.325 6.22676 11.3399C6.38672 11.2919 6.53525 11.2137 6.70752 11.2518C6.98145 11.3124 7.16982 11.6001 7.10713 11.8743C7.06318 12.0662 6.99873 12.2505 6.89121 12.4187C6.76436 12.6173 6.49453 12.6864 6.28594 12.5681C6.0627 12.4412 5.95195 12.1945 6.00498 11.942C6.02021 11.8702 6.03516 11.7984 6.05039 11.7267C6.04395 11.7243 6.03867 11.7208 6.03311 11.7176Z" fill="white"/>
</g>
<defs>
<clipPath id="clip0_961_909">
<rect width="15" height="15" fill="white"/>
</clipPath>
</defs>
</svg>
