<svg width="15" height="15" viewBox="0 0 15 15" fill="none" xmlns="http://www.w3.org/2000/svg">
<g id="setting 1" clip-path="url(#clip0_1132_228)">
<path id="Vector" d="M8.67188 4.13086C8.67188 4.40303 8.74453 4.6582 8.87168 4.87793H0.717773C0.313184 4.87793 -0.0146484 4.5501 -0.0146484 4.14551C-0.0146484 3.94336 0.0673828 3.75996 0.199805 3.62754C0.332227 3.49512 0.515625 3.41309 0.717773 3.41309H8.85557C8.73838 3.62607 8.67188 3.8707 8.67188 4.13086Z" fill="#D0D2D6"/>
<path id="Vector_2" d="M14.9854 4.14551C14.9854 4.34766 14.9033 4.53105 14.7709 4.66348C14.6385 4.7959 14.4551 4.87793 14.2529 4.87793H11.4604C11.5875 4.6582 11.6602 4.40303 11.6602 4.13086C11.6602 3.8707 11.5937 3.62607 11.4765 3.41309H14.2529C14.6575 3.41309 14.9854 3.74092 14.9854 4.14551Z" fill="#D0D2D6"/>
<path id="Vector_3" d="M3.44355 10.166C3.32168 10.3825 3.25195 10.6324 3.25195 10.8984C3.25195 11.1645 3.32168 11.4144 3.44355 11.6309H0.732422C0.327832 11.6309 0 11.303 0 10.8984C0 10.6963 0.0820313 10.5129 0.214453 10.3805C0.346875 10.248 0.530273 10.166 0.732422 10.166H3.44355Z" fill="#D0D2D6"/>
<path id="Vector_4" d="M15 10.8984C15 11.1006 14.918 11.284 14.7855 11.4164C14.6531 11.5488 14.4697 11.6309 14.2676 11.6309H6.04863C6.17051 11.4144 6.24023 11.1645 6.24023 10.8984C6.24023 10.6324 6.17051 10.3825 6.04863 10.166H14.2676C14.6722 10.166 15 10.4938 15 10.8984Z" fill="#D0D2D6"/>
<path id="Vector_5" d="M13.0371 3.41309C12.7166 2.12578 11.5526 1.17188 10.166 1.17188C8.77939 1.17188 7.61543 2.12578 7.29492 3.41309C7.2375 3.64277 7.20703 3.8833 7.20703 4.13086C7.20703 4.38896 7.24014 4.63945 7.30225 4.87793C7.6333 6.15059 8.78994 7.08984 10.166 7.08984C11.5421 7.08984 12.6987 6.15059 13.0298 4.87793C13.0919 4.63945 13.125 4.38896 13.125 4.13086C13.125 3.8833 13.0945 3.64277 13.0371 3.41309ZM10.166 5.625C9.61289 5.625 9.13008 5.32441 8.87168 4.87793C8.74453 4.6582 8.67188 4.40303 8.67188 4.13086C8.67188 3.8707 8.73838 3.62607 8.85557 3.41309C9.10898 2.9502 9.60088 2.63672 10.166 2.63672C10.7312 2.63672 11.223 2.9502 11.4765 3.41309C11.5937 3.62607 11.6602 3.8707 11.6602 4.13086C11.6602 4.40303 11.5875 4.6582 11.4604 4.87793C11.202 5.32441 10.7191 5.625 10.166 5.625Z" fill="#D0D2D6"/>
<path id="Vector_6" d="M7.61367 10.166C7.28789 8.88604 6.12744 7.93945 4.74609 7.93945C3.36475 7.93945 2.2043 8.88604 1.87852 10.166C1.81875 10.4001 1.78711 10.6456 1.78711 10.8984C1.78711 11.1513 1.81875 11.3968 1.87852 11.6309C2.2043 12.9108 3.36475 13.8574 4.74609 13.8574C6.12744 13.8574 7.28789 12.9108 7.61367 11.6309C7.67344 11.3968 7.70508 11.1513 7.70508 10.8984C7.70508 10.6456 7.67344 10.4001 7.61367 10.166ZM4.74609 12.3926C4.18682 12.3926 3.69961 12.0855 3.44355 11.6309C3.32168 11.4144 3.25195 11.1645 3.25195 10.8984C3.25195 10.6324 3.32168 10.3825 3.44355 10.166C3.69961 9.71133 4.18682 9.4043 4.74609 9.4043C5.30537 9.4043 5.79258 9.71133 6.04863 10.166C6.17051 10.3825 6.24023 10.6324 6.24023 10.8984C6.24023 11.1645 6.17051 11.4144 6.04863 11.6309C5.79258 12.0855 5.30537 12.3926 4.74609 12.3926Z" fill="#D0D2D6"/>
</g>
<defs>
<clipPath id="clip0_1132_228">
<rect width="15" height="15" fill="white"/>
</clipPath>
</defs>
</svg>
