<svg width="18" height="18" viewBox="0 0 18 18" fill="none" xmlns="http://www.w3.org/2000/svg">
<g id="setting">
<path id="Vector (Stroke)" fill-rule="evenodd" clip-rule="evenodd" d="M9 6.1875C7.4467 6.1875 6.1875 7.4467 6.1875 9C6.1875 10.5533 7.4467 11.8125 9 11.8125C10.5533 11.8125 11.8125 10.5533 11.8125 9C11.8125 7.4467 10.5533 6.1875 9 6.1875ZM5.0625 9C5.0625 6.82538 6.82538 5.0625 9 5.0625C11.1746 5.0625 12.9375 6.82538 12.9375 9C12.9375 11.1746 11.1746 12.9375 9 12.9375C6.82538 12.9375 5.0625 11.1746 5.0625 9Z" fill="#252733"/>
<path id="Vector (Stroke)_2" fill-rule="evenodd" clip-rule="evenodd" d="M6.59131 1.49673C6.74581 1.44686 6.91431 1.46617 7.05352 1.54969L8.69777 2.53624C8.89931 2.52723 9.10116 2.52724 9.3027 2.53626L10.9401 1.55639C11.0782 1.47377 11.245 1.45422 11.3984 1.50269C12.473 1.84218 13.4609 2.41114 14.2938 3.17018C14.4132 3.27899 14.48 3.43389 14.4773 3.5954L14.4451 5.50666C14.5562 5.67717 14.6581 5.85347 14.7504 6.0348L16.4171 6.9615C16.5575 7.03953 16.6578 7.17383 16.6928 7.33055C16.938 8.42889 16.9406 9.56751 16.7004 10.6669C16.6658 10.825 16.5649 10.9606 16.4234 11.0389L14.7501 11.9657C14.6579 12.1468 14.5561 12.323 14.4451 12.4933L14.4773 14.4046C14.48 14.5661 14.4132 14.721 14.2938 14.8298C13.4626 15.5872 12.4789 16.1578 11.4088 16.5033C11.2543 16.5531 11.0858 16.5338 10.9466 16.4503L9.30234 15.4638C9.10079 15.4728 8.89895 15.4728 8.6974 15.4637L7.05999 16.4436C6.92193 16.5262 6.75511 16.5458 6.60169 16.4973C5.52715 16.1578 4.53923 15.5889 3.70632 14.8298C3.58691 14.721 3.52006 14.5661 3.52279 14.4046L3.555 12.4976C3.44462 12.3254 3.34284 12.1477 3.25005 11.9654L1.58297 11.0385C1.44262 10.9605 1.34231 10.8262 1.30732 10.6694C1.06209 9.57111 1.0595 8.43249 1.29974 7.33305C1.33427 7.17498 1.4352 7.03944 1.57674 6.96105L3.24998 6.03434C3.34222 5.85317 3.44402 5.67703 3.55496 5.50666L3.52279 3.5954C3.52007 3.43388 3.58693 3.27898 3.70634 3.17017C4.53749 2.41278 5.52121 1.84217 6.59131 1.49673ZM4.65201 3.83672L4.68278 5.66475C4.68478 5.78318 4.64934 5.89921 4.58151 5.99632C4.43064 6.21232 4.29855 6.44086 4.18669 6.67942C4.1364 6.78667 4.05355 6.8753 3.94993 6.93269L2.34999 7.81881C2.21005 8.60013 2.21199 9.40031 2.35573 10.181L3.95073 11.0677C4.05357 11.1249 4.13588 11.2129 4.1861 11.3193C4.30041 11.5616 4.43373 11.7943 4.58483 12.0155C4.65052 12.1117 4.68475 12.2259 4.68278 12.3423L4.65203 14.1632C5.26002 14.6768 5.95529 15.0772 6.70472 15.3452L8.26824 14.4095C8.36726 14.3503 8.48211 14.3229 8.59722 14.3311C8.86543 14.3503 9.13467 14.3503 9.40289 14.3311C9.51821 14.3229 9.63328 14.3504 9.73242 14.4098L11.301 15.351C12.048 15.0787 12.741 14.6766 13.3481 14.1633L13.3173 12.3352C13.3153 12.2168 13.3508 12.1008 13.4186 12.0037C13.5695 11.7877 13.7016 11.5591 13.8134 11.3206C13.8637 11.2133 13.9466 11.1247 14.0502 11.0673L15.6501 10.1812C15.7901 9.39987 15.7881 8.59968 15.6444 7.81904L14.0494 6.93225C13.9461 6.87484 13.8636 6.78638 13.8134 6.67942C13.7016 6.44086 13.5695 6.21232 13.4186 5.99632C13.3508 5.89921 13.3153 5.78318 13.3173 5.66475L13.3481 3.83679C12.7401 3.32318 12.0448 2.92283 11.2954 2.65484L9.73187 3.59049C9.63284 3.64974 9.51799 3.67711 9.40289 3.66888C9.13467 3.64969 8.86543 3.64969 8.59722 3.66888C8.48189 3.67713 8.36682 3.64964 8.26768 3.59015L6.69912 2.64901C5.95214 2.92126 5.2591 3.32335 4.65201 3.83672Z" fill="#252733"/>
</g>
</svg>
