<svg width="18" height="19" viewBox="0 0 18 19" fill="none" xmlns="http://www.w3.org/2000/svg">
<g id="Trash">
<path id="Vector" d="M2.25 5H3.75H15.75" stroke="white" stroke-width="1.2" stroke-linecap="round" stroke-linejoin="round"/>
<path id="Vector_2" d="M6 5V3.5C6 3.10218 6.15804 2.72064 6.43934 2.43934C6.72064 2.15804 7.10218 2 7.5 2H10.5C10.8978 2 11.2794 2.15804 11.5607 2.43934C11.842 2.72064 12 3.10218 12 3.5V5M14.25 5V15.5C14.25 15.8978 14.092 16.2794 13.8107 16.5607C13.5294 16.842 13.1478 17 12.75 17H5.25C4.85218 17 4.47064 16.842 4.18934 16.5607C3.90804 16.2794 3.75 15.8978 3.75 15.5V5H14.25Z" stroke="white" stroke-width="1.2" stroke-linecap="round" stroke-linejoin="round"/>
<path id="Vector_3" d="M7.5 8.75V13.25" stroke="white" stroke-width="1.2" stroke-linecap="round" stroke-linejoin="round"/>
<path id="Vector_4" d="M10.5 8.75V13.25" stroke="white" stroke-width="1.2" stroke-linecap="round" stroke-linejoin="round"/>
</g>
</svg>
